<svg width="39" height="39" viewBox="0 0 39 39" fill="none" xmlns="http://www.w3.org/2000/svg">
<path d="M21.242 19.8715L25.054 23.6834L24.5401 26.2529L21.9707 26.7668L18.1587 22.9548C17.6869 24.0686 17.5737 25.3016 17.8355 26.4825C18.0973 27.6634 18.7209 28.7333 19.6192 29.5432C20.5176 30.3532 21.6462 30.8629 22.8478 31.0014C24.0494 31.1399 25.2643 30.9003 26.3234 30.316L31.4184 36.2145C31.8273 36.623 32.3818 36.8523 32.9598 36.8522C33.5378 36.852 34.0921 36.6223 34.5008 36.2136C34.9095 35.8049 35.1392 35.2506 35.1394 34.6726C35.1396 34.0945 34.9102 33.5401 34.5017 33.1311L28.6031 28.0362C29.1874 26.9771 29.4271 25.7622 29.2886 24.5606C29.1501 23.3589 28.6404 22.2304 27.8304 21.332C27.0205 20.4336 25.9506 19.8101 24.7697 19.5483C23.5888 19.2864 22.3558 19.3996 21.242 19.8715Z" stroke="#F35692" stroke-width="1.5" stroke-linecap="round" stroke-linejoin="round"/>
<path d="M37 22.6818V3.66667C37 3.22464 36.8244 2.80072 36.5118 2.48816C36.1993 2.1756 35.7754 2 35.3333 2H3.66665C3.22463 2 2.8007 2.1756 2.48814 2.48816C2.17558 2.80072 1.99998 3.22464 1.99998 3.66667V35.3333C1.99998 35.7754 2.17558 36.1993 2.48814 36.5119C2.8007 36.8244 3.22463 37 3.66665 37H17.9092" stroke="#F35692" stroke-width="2.89" stroke-linecap="round" stroke-linejoin="round"/>
</svg>
